<svg xmlns="http://www.w3.org/2000/svg" width="15" height="16" viewBox="0 0 9.793 13.984">
  <path id="Caminho_6296" data-name="Caminho 6296" d="M7.4.6a7.273,7.273,0,0,1-.53,2.9A4.726,4.726,0,0,1,5.382,5.443L7.406,7.021l-1.327,1.2L3.57,6.236a5.082,5.082,0,0,1-1.06.105,4.7,4.7,0,0,1-2.545-.7A4.6,4.6,0,0,1-1.768,3.646,7,7,0,0,1-2.387.66V0a7.167,7.167,0,0,1,.611-3.043A4.592,4.592,0,0,1-.052-5.066a4.678,4.678,0,0,1,2.545-.7,4.764,4.764,0,0,1,2.569.692,4.534,4.534,0,0,1,1.72,1.991A7.152,7.152,0,0,1,7.4-.06ZM5.342-.02A5.117,5.117,0,0,0,4.6-3.038a2.446,2.446,0,0,0-2.1-1.028A2.408,2.408,0,0,0,.426-3.026,5.035,5.035,0,0,0-.339-.093V.6A5.168,5.168,0,0,0,.409,3.582a2.412,2.412,0,0,0,2.1,1.076,2.416,2.416,0,0,0,2.1-1.036A5.222,5.222,0,0,0,5.342.6Z" transform="translate(2.387 5.766)" fill="#fff"/>
</svg>
